<?xml version="1.0" encoding="UTF-8"?><svg id="a" xmlns="http://www.w3.org/2000/svg" viewBox="0 0 1149.87 368.34"><g><path d="M379.28,230.27c-1.6-1.56-4.13-1.49-5.62,.19-13.23,14.8-33.17,23.26-55.89,23.26-26.31,0-47.17-11-59.36-28.98-.44-.64-1.38-.54-1.7,.17-5.65,12.35-13.34,23.67-22.72,33.52-.39,.41-.39,1.06,0,1.46,19.82,20.25,48.69,32.73,83.92,32.73s63.3-11.41,84.36-34.22c1.52-1.65,1.44-4.28-.16-5.85l-22.83-22.27Z" fill="#3c3c3c"/><path d="M262.48,137.03c.26,.74,1.2,.94,1.73,.37,13.21-14.66,33.15-23.56,56.67-23.56,17.36,0,32.56,4.36,44.69,12.06,1.54,.98,3.54,.84,4.92-.35l24.82-21.52c2-1.73,1.87-4.86-.25-6.44-19.82-14.75-45.04-22.64-73.24-22.64-31.23,0-58.32,9.58-78.7,25.73-.45,.36-.51,1.01-.15,1.46,8.55,10.55,15.13,22.35,19.52,34.9Z" fill="#9638da"/></g><path d="M156.3,77.41c51.06,7.53,90.28,46.64,90.75,96.47,.44,46.88-33.57,86.6-80,98.21-8.6,2.15-17.62,3.42-26.93,3.42-7.72,0-20.8-1.43-20.8-1.43l.12,12.97c.03,3.32-2.85,6.06-6.41,6.09l-27.48,.26c-3.55,.03-6.49-2.65-6.52-5.97l-.43-45.42c-.03-3.32,2.85-6.06,6.41-6.09,0,0,52.39,0,53.25,0,24.83-.24,46.36-13.28,57.47-31.87,5.21-8.73,8.14-18.75,8.03-29.38-.06-6.58-1.28-12.91-3.47-18.82-8.29-22.36-30.56-36.9-57.25-38.8-10.19-.72-12.96-.86-37.65-1.19-4.76-.06-6.81-2.27-9.27-5.84l-19.76-28.63c-3.12-4.52-.88-4.87,4.52-5.32,3.62-.3,6.93-.53,9.96-.63,33.02-1.07,46.64-.83,65.46,1.94" fill="#3c3c3c" fill-rule="evenodd"/><g><path d="M899.83,258.17h-10.68v-5.93h28.65v5.93h-10.68v18.04h-7.3v-18.04Z" fill="#3c3c3c"/><path d="M960.55,252.23v5.43h-19.37v4.13h18.26v4.74h-18.26v4.24h19.63v5.43h-26.82v-23.98h26.56Z" fill="#3c3c3c"/><path d="M990.47,252.23h9.78l13.12,23.98h-7.98l-2.37-4.28h-15.46l-2.3,4.28h-8.27l13.48-23.98Zm9.99,14.7l-5.18-9.56-5.11,9.56h10.28Z" fill="#3c3c3c"/><path d="M1030.02,252.15h11.57l8.74,15.93,8.7-15.93h11.5v23.98h-7.12l.36-18.51-10.64,18.51h-5.82l-10.46-18.51,.22,18.51h-7.05v-23.98Z" fill="#3c3c3c"/><path d="M454.4,143.23c0-2.34,1.9-4.24,4.24-4.24h44.57c12.35,0,15.5,.45,19.52,2.8,6.41,3.69,8.8,10.52,8.8,24.63,0,3.37-.15,6.35-.39,8.99-.32,3.52-2.34,8.73-4.75,11.14-2.5,2.5-7.9,5.92-14.43,7.54-4.32,1.07-7.03,1.73-7.03,1.73l-31.2,7.64v5.97c0,2.34-1.9,4.24-4.24,4.24h-10.85c-2.34,0-4.24-1.9-4.24-4.24v-66.19Zm47.56,35.68s2.59-.71,4.87-1.34c3.17-.87,4.38-2.95,4.83-4.58,.38-1.4,.54-3.03,.54-4.9,0-8.96-1.92-10.97-10.24-10.97h-28.23v29.42l28.23-7.64Z" fill="#3c3c3c"/><path d="M615.27,139.33c9.86,2.13,14.64,8.06,15.98,20.04,.38,3.02,.57,9.07,.57,18.14,0,18.02-1.63,25.3-7.08,30.56-3.83,3.81-9.19,5.6-18.47,6.05-3.45,.22-11.96,.33-18.18,.33-15.22,0-22.97-.33-26.8-1.23-7.08-1.45-11.2-4.59-13.59-10.07-2.49-5.49-3.06-10.97-3.06-27.32,0-12.54,.19-15.67,1.34-20.71,1.82-7.95,5.55-12.2,12.73-14.67,5.36-1.79,11.2-2.24,28.04-2.24,18.37,0,24.02,.22,28.52,1.12Zm-47.66,19.81c-2.58,2.35-3.35,6.05-3.35,16.79s.77,15,3.16,17.35c2.58,2.46,5.74,2.91,20.38,2.91,16.75,0,20.19-.67,22.39-4.25,1.82-2.69,2.3-6.49,2.3-16.46,0-18.81-.29-19.03-24.21-19.03-14.26,0-18.18,.56-20.67,2.69Z" fill="#3c3c3c"/><path d="M651.38,138.99h10.95c2.34,0,4.24,1.9,4.24,4.24v51.96h39.69c2.34,0,4.24,1.9,4.24,4.24v9.99c0,2.34-1.9,4.24-4.24,4.24h-54.87c-2.34,0-4.24-1.9-4.24-4.24v-66.19c0-2.34,1.9-4.24,4.24-4.24Z" fill="#3c3c3c"/><g><path d="M789.09,147.81c-7.78-7.2-17.76-11-28.88-11,0,0-.02,0-.02,0-1.47,0-2.95,.07-4.41,.22-21.23,2.12-37.24,18.98-37.24,39.21s15.69,36.69,36.5,39.12c1.7,.2,3.42,.3,5.14,.3,.01,0,.03,0,.04,0,9.54,0,18.51-2.97,25.96-8.59l.29-.22c1.06-.8,1.65-1.24,1.73-1.94,.08-.68-.37-1.25-1.11-2.12l-2.5-2.97c-1.46-1.73-2.26-1.22-3.67-.08l-.1,.08c-5.72,4.64-12.65,6.99-20.61,6.99-1.55,0-3.11-.1-4.63-.31-15.83-2.14-27.76-15.15-27.76-30.27,0-14.95,11.78-27.94,27.4-30.22,1.64-.24,3.32-.36,4.99-.36,9.13,0,17.11,3.16,23.09,9.14,.11,.11,.2,.21,.29,.31,.34,.37,.67,.75,1.22,.73,.52-.02,.86-.45,.97-.59l3.64-4.6c1.02-1.28,.35-2.19-.34-2.83Z" fill="#3c3c3c"/><path d="M846.22,137.94c-26.83,0-31.62,.91-36.57,6.93-4.17,4.99-5.13,10.89-5.13,31.52s.96,26.29,5.13,31.4c4.95,6.02,9.69,6.93,36.19,6.93s31.24-.91,36.19-6.93c4.17-5.11,5.13-11,5.13-31.51s-.96-26.29-5.13-31.4c-4.99-5.96-10.01-6.93-35.81-6.93Zm-29.94,12.86c3.01-3.74,8.05-4.49,29.94-4.49s26.29,.8,29.17,4.49c2.62,3.17,3.29,8.43,3.29,25.59s-.68,22.3-3.29,25.47c-3.21,3.87-7.35,4.5-29.56,4.5s-26.41-.59-29.56-4.49c-2.61-3.17-3.29-8.4-3.29-25.47s.68-22.41,3.29-25.58Z" fill="#3c3c3c"/><path d="M977.75,149.73c-3.87-7.91-10.93-11-25.21-11h-48.49c-.8,0-1.44,.65-1.44,1.44v72.31c0,.8,.65,1.44,1.44,1.44h48.49c14.28,0,21.35-3.09,25.21-11.01,2.85-5.45,4.24-14.16,4.24-26.65s-1.39-21.09-4.24-26.54Zm-7.45,49.04c-2.54,4.73-8.32,7.13-17.18,7.13h-42.32v-59.14h41.75c9.59,0,15.01,2.03,17.57,6.58,2.26,4.08,3.41,11.95,3.41,23.38,0,10.79-1.02,17.79-3.22,22.04Z" fill="#3c3c3c"/></g><path d="M1036.24,207.27c10.51,0,19.86-4.72,25.88-12.05,.5-.61,1.36-.78,2.04-.37l4,2.45c.8,.49,1.01,1.59,.42,2.32-7.48,9.12-19.17,14.99-32.31,14.99-22.6,0-40.91-17.36-40.91-38.76s18.32-38.76,40.91-38.76c9.89,0,19.02,3.22,26.1,8.75,4.06,3.18,7.44,7.1,9.95,11.55,.98,1.74,1.83,3.57,2.52,5.45,.28,.76-.1,1.62-.84,1.96l-6.05,2.75-58.48,26.56c5.97,7.97,15.72,13.18,26.77,13.18Zm-30.51-19.65l59.33-26.94c-5.61-9.68-16.41-16.24-28.82-16.24-18.18,0-32.92,14.07-32.92,31.42,0,4.16,.87,8.13,2.41,11.76" fill="#3c3c3c"/><g><path d="M724.03,252.15h20.71c5.07,0,7.44,.58,9.09,2.23,1.33,1.29,1.87,2.8,2.12,5.86,.07,1.11,.15,2.77,.15,3.92,0,2.16-.15,4.64-.36,6-.4,2.88-2.41,5.11-5.03,5.61-1.37,.29-2.44,.36-5,.36h-21.67v-23.98Zm19.52,18.26c1.98,0,2.12,0,2.98-.29,1.76-.54,2.23-1.8,2.23-5.93,0-5.03-.86-6.08-5.07-6.08h-12.37v12.29h12.22Z" fill="#3c3c3c"/><path d="M800.44,252.15v5.43h-19.37v4.13h18.26v4.74h-18.26v4.24h19.63v5.43h-26.82v-23.98h26.56Z" fill="#3c3c3c"/><path d="M815.99,252.15h8.05l9.46,18.12,9.67-18.12h8.12l-13.27,23.98h-9.24l-12.8-23.98Z" fill="#3c3c3c"/></g></g></svg>